<svg xmlns="http://www.w3.org/2000/svg" width="377.002" height="300" viewBox="0 0 377.002 300">
  <path id="Flow_Body" data-name="Flow Body" d="M14004-5528h-369l205-300h164a8.009,8.009,0,0,1,8,8v284A8.009,8.009,0,0,1,14004-5528Zm-118.937-201.568a13.092,13.092,0,0,0-4.962.911,11.428,11.428,0,0,0-3.83,2.511,11.26,11.26,0,0,0-2.465,3.776,12.609,12.609,0,0,0-.872,4.705,12.605,12.605,0,0,0,.872,4.705,11.323,11.323,0,0,0,2.465,3.784,11.413,11.413,0,0,0,3.83,2.518,13.1,13.1,0,0,0,4.962.911,13.022,13.022,0,0,0,4.951-.911,11.34,11.34,0,0,0,3.815-2.518,11.483,11.483,0,0,0,2.458-3.784,12.605,12.605,0,0,0,.872-4.705,12.532,12.532,0,0,0-.872-4.687,11.351,11.351,0,0,0-2.458-3.777,11.515,11.515,0,0,0-3.815-2.521A12.941,12.941,0,0,0,13885.064-5729.567Zm28.977,7.536v0c.073.3.15.581.23.843.067.23.135.438.2.639l.026.079.006.017,4.382,14.45h4.9l7.2-23.315h-4.255a1.9,1.9,0,0,0-1.153.355,1.524,1.524,0,0,0-.608.816l-3.2,12.16c-.093.366-.184.758-.278,1.2-.088.412-.177.864-.264,1.343-.1-.47-.209-.924-.337-1.351s-.255-.837-.369-1.192l-3.742-12.16a1.6,1.6,0,0,0-.633-.858,2.02,2.02,0,0,0-1.16-.313h-1.6a1.838,1.838,0,0,0-1.143.362,1.685,1.685,0,0,0-.615.809l-3.777,12.16q-.085.291-.177.6l-.021.069-.172.587c-.124.437-.239.9-.352,1.414a11.641,11.641,0,0,0-.239-1.407c-.095-.4-.2-.814-.319-1.262l-3.2-12.16a1.479,1.479,0,0,0-.615-.851,2.1,2.1,0,0,0-1.179-.32h-4.543l7.2,23.315h4.895l4.448-14.45c.083-.251.159-.492.232-.735s.146-.514.228-.83l0-.014Zm-54.257-7.283V-5706h14.048v-4.322h-8.64v-18.993Zm-16.866,0V-5706h5.444v-9.073h7.965v-4.178h-7.965v-5.9h9.564v-4.164Zm42.146,19.092a7.268,7.268,0,0,1-2.792-.507,5.452,5.452,0,0,1-2.064-1.463,6.621,6.621,0,0,1-1.287-2.345,10.151,10.151,0,0,1-.45-3.126,10.1,10.1,0,0,1,.45-3.112,6.613,6.613,0,0,1,1.287-2.346,5.547,5.547,0,0,1,2.064-1.47,7.209,7.209,0,0,1,2.792-.514,7.091,7.091,0,0,1,2.768.514,5.547,5.547,0,0,1,2.057,1.47,6.617,6.617,0,0,1,1.287,2.346,10.107,10.107,0,0,1,.447,3.112,10.16,10.16,0,0,1-.447,3.126,6.621,6.621,0,0,1-1.287,2.345,5.457,5.457,0,0,1-2.057,1.463A7.148,7.148,0,0,1,13885.064-5710.222Z" transform="translate(-13634.999 5827.999)" fill="#3a3a3d" opacity="0.45"/>
</svg>
